<?xml version="1.0" encoding="utf-8"?>
<!-- Generator: Adobe Illustrator 22.0.1, SVG Export Plug-In . SVG Version: 6.00 Build 0)  -->
<svg version="1.1" id="Layer_1" xmlns="http://www.w3.org/2000/svg" xmlns:xlink="http://www.w3.org/1999/xlink" x="0px" y="0px"
	 viewBox="0 0 1254 1254" style="enable-background:new 0 0 1254 1254;" xml:space="preserve">
<style type="text/css">
	.st0{display:none;}
	.st1{display:inline;fill:#011F35;stroke:#000000;stroke-width:1.0699;stroke-miterlimit:10;}
	.st2{fill:url(#SVGID_1_);}
	.st3{fill:none;stroke:#D1E8FC;stroke-width:3;}
	.st4{fill:none;stroke:#FFFFFF;stroke-width:3;stroke-opacity:0.9;}
	.st5{fill:#2F91EF;}
	.st6{fill:#B4DAFF;}
	.st7{fill:#A8D2FF;}
	.st8{fill:#C6E5FF;}
	.st9{fill:#B8DDFF;}
	.st10{fill:#C9E7FF;}
	.st11{fill:#B0D6FF;}
	.st12{fill:#EFF9FF;stroke:#BDDFFF;stroke-width:3;}
	.st13{fill:url(#SVGID_2_);}
	.st14{fill:url(#SVGID_3_);}
</style>
<g id="Layer_2_1_" class="st0">
	<rect x="134" y="229" class="st1" width="959" height="762"/>
</g>
<g id="Layer_1_1_" shape-rendering="geometricPrecision">
	<g transform="matrix(1 -.22 -.05 .95 0 120)">
		<g>
			
				<linearGradient id="SVGID_1_" gradientUnits="userSpaceOnUse" x1="-9594.9268" y1="287.8911" x2="-9594.0215" y2="286.8622" gradientTransform="matrix(494.225 134.6345 -23.5375 -550.8587 4749258 1450756.25)">
				<stop  offset="0" style="stop-color:#FFFFFF"/>
				<stop  offset="0.56" style="stop-color:#F8FCFF"/>
				<stop  offset="1" style="stop-color:#D9EFFF"/>
			</linearGradient>
			<path class="st2" d="M468,360l425.6,31.9c21,0,38,17,38,38v574c0,21-17,38-38,38L468,1010c-21,0-38-17-38-38V398
				C430,377,447,360,468,360z"/>
			<path class="st3" d="M468,360l425.6,31.9c21,0,38,17,38,38v574c0,21-17,38-38,38L468,1010c-21,0-38-17-38-38V398
				C430,377,447,360,468,360z"/>
		</g>
		<path class="st4" d="M473,375l415.6,31.9c15.5,0,28,12.5,28,28v564c0,15.5-12.5,28-28,28L473,995c-15.5,0-28-12.5-28-28V403
			C445,387.5,457.5,375,473,375z"/>
		<path class="st5" d="M497.5,432l97.3,5.3c4.1,0,7.5,3.4,7.5,7.5l0,0c0,4.1-3.4,7.5-7.5,7.5l-97.3-5.3c-4.1,0-7.5-3.4-7.5-7.5l0,0
			C490,435.4,493.4,432,497.5,432z"/>
		<path class="st6" d="M496,477l184.4,8.5c3.3,0,6,2.7,6,6l0,0c0,3.3-2.7,6-6,6L496,489c-3.3,0-6-2.7-6-6l0,0
			C490,479.7,492.7,477,496,477z"/>
		<path class="st7" d="M496,505l236.5,9.6c3.3,0,6,2.7,6,6l0,0c0,3.3-2.7,6-6,6L496,517c-3.3,0-6-2.7-6-6l0,0
			C490,507.7,492.7,505,496,505z"/>
		<path class="st8" d="M493.5,532.4L734,543.7c3.3,0,6,2.7,6,6l0,0c0,3.3-2.7,6-6,6l-240.4-11.3c-3.3,0-6-2.7-6-6l0,0
			C487.5,535.1,490.2,532.4,493.5,532.4z"/>
		<path class="st9" d="M493.5,560.4l387.7,17.4c3.3,0,6,2.7,6,6l0,0c0,3.3-2.7,6-6,6l-387.7-17.4c-3.3,0-6-2.7-6-6l0,0
			C487.5,563.1,490.2,560.4,493.5,560.4z"/>
		<path class="st10" d="M493.5,588.4l387,16.5c3.3,0,6,2.7,6,6l0,0c0,3.3-2.7,6-6,6l-387-16.5c-3.3,0-6-2.7-6-6l0,0
			C487.5,591.1,490.2,588.4,493.5,588.4z"/>
		<path class="st11" d="M491.7,616l388.1,18c3.3,0,6,2.7,6,6l0,0c0,3.3-2.7,6-6,6l-388.1-18c-3.3,0-6-2.7-6-6l0,0
			C485.7,618.7,488.4,616,491.7,616z"/>
		<g transform="translate(778 388)">
			<path class="st12" d="M29.7,33l50.2,3.2c15.5,0,28,12.5,28,28v56c0,15.5-12.5,28-28,28l-50.2-4.3c-15.5,0-28-12.5-28-28V61
				C1.7,45.5,14.2,33,29.7,33z"/>
			
				<linearGradient id="SVGID_2_" gradientUnits="userSpaceOnUse" x1="-11656.8984" y1="-351.4924" x2="-11656.8984" y2="-352.4924" gradientTransform="matrix(33.6073 7.0424 -1.6005 -28.8141 391248.9688 72015.5859)">
				<stop  offset="0" style="stop-color:#45A7FF"/>
				<stop  offset="1" style="stop-color:#1474E8"/>
			</linearGradient>
			<path class="st13" d="M54.6,50.9c9.4,0,17,7.6,17,17s-7.6,17-17,17s-17-7.6-17-17S45.2,50.9,54.6,50.9z"/>
			
				<linearGradient id="SVGID_3_" gradientUnits="userSpaceOnUse" x1="-11765.5205" y1="-359.2924" x2="-11765.5205" y2="-360.2924" gradientTransform="matrix(53.3763 8.2334 -2.542 -33.6871 627141.3125 84852.2656)">
				<stop  offset="0" style="stop-color:#45A7FF"/>
				<stop  offset="1" style="stop-color:#1474E8"/>
			</linearGradient>
			<path class="st14" d="M27.6,118.9c2-23,14-33,27-33s25,10,27,33C66.6,127.9,42.6,127.9,27.6,118.9z"/>
		</g>
	</g>
</g>
</svg>
